<svg xmlns="http://www.w3.org/2000/svg" version="1.1" xmlns:xlink="http://www.w3.org/1999/xlink" xmlns:svgjs="http://svgjs.dev/svgjs" width="1000" height="1266" viewBox="0 0 1000 1266"><g transform="matrix(1,0,0,1,0.9807422819206408,0.5134970933862633)"><svg viewBox="0 0 195 247" data-background-color="#ffffff" preserveAspectRatio="xMidYMid meet" height="1266" width="1000" xmlns="http://www.w3.org/2000/svg" xmlns:xlink="http://www.w3.org/1999/xlink"><g id="tight-bounds" transform="matrix(1,0,0,1,-0.19121006984025257,-0.09997365579206985)"><svg viewBox="0 0 195.38245481481482 247.2" height="247.2" width="195.38245481481482"><g><svg viewBox="0 0 195.38245481481482 247.2" height="247.2" width="195.38245481481482"><g><svg viewBox="0 0 195.38245481481482 247.2" height="247.2" width="195.38245481481482"><g id="textblocktransform"><svg viewBox="0 0 195.38245481481482 247.2" height="247.2" width="195.38245481481482" id="textblock"><g><svg viewBox="0 0 195.38245481481482 247.2" height="247.2" width="195.38245481481482"><path d="M194.925 53.02C194.006 27.36 191.389 20.227 191.389 20.227 183.351-6.202 173.321-0.506 164.31 3.292 148.401 3.446 132.556 9.091 116.684 12.119 83.369 12.581 49.769 4.986 16.619 23.717 13.505 29.464-3.231 24.846 0.554 56.304 1.546 69.39 5.165 83.913 5.055 95.922 5.551 98.026 6.24 93.202 6.534 96.23 7.562 104.39 9.243 100.541 10.621 105.365 8.701 118.246 10.079 128.971 11.393 140.21 9.078 143.135 6.111 141.749 4.779 151.449 4.641 158.479 3.897 157.145 3.08 156.837 2.483 156.632 1.28 157.402 1.482 159.608 2.17 167.152-0.787 171.514 1.068 178.904-0.209 186.91 1.95 193.838 1.656 202.511 1.619 204.255 1.821 205.744 2.143 206.154 3.567 208.361 1.491 212.672 1.711 217.342 16.316 249.262 32.161 227.195 47.124 241.872 51.009 231.608 48.088 245.516 49.64 243.36 50.853 240.846 51.735 251.263 53.103 245.362 53.315 243.668 52.993 239.665 53.746 240.435 54.141 240.846 54.49 240.743 54.545 238.382 54.628 234.841 53.902 237.048 53.709 235.201 55.795 225.861 55.28 248.081 57.237 247.158 57.145 244.438 56.575 240.538 57.742 241.051 58.899 237.151 58.936 233.918 59.965 242.693 60.001 244.592 60.185 245.926 60.479 246.85 63.694 237.305 66.89 250.237 70.261 245.926 72.328 241.205 74.312 248.492 76.406 246.696 77.141 245.259 77.885 242.693 78.593 247.004 87.254 247.928 96.486 244.079 104.697 247.158 126.641 241.41 150.091 249.518 173.229 241.923 178.685 238.998 184.353 234.841 189.671 231.506 189.671 231.506 193.979 222.371 193.979 181.316S194.897 145.393 195.035 112.703C195.173 80.013 195.816 78.679 194.897 53.02Z" opacity="1" fill="#ff0000" data-fill-palette-color="tertiary"></path><g transform="matrix(1,0,0,1,55.76832,26.230666666666668)"><svg width="83.84581481481482" viewBox="1.25 -35.5 15.5 36" height="194.73866666666666" data-palette-color="#ffffff"><path d="M7.85 0.5L7.85 0.5Q4.4 0.5 2.83-0.48 1.25-1.45 1.25-2.5L1.25-2.5Q1.25-3.1 1.5-3.93 1.75-4.75 2.3-5.4L2.3-5.4Q3.1-4.65 4.38-4.15 5.65-3.65 7.45-3.65L7.45-3.65Q10.1-3.65 11.23-5.05 12.35-6.45 12.35-8.75L12.35-8.75Q12.35-10.45 11.73-11.9 11.1-13.35 9.45-15.25L9.45-15.25 4.45-21.1Q2.75-23.2 2.02-24.88 1.3-26.55 1.3-28.35L1.3-28.35Q1.3-31.5 3.53-33.5 5.75-35.5 9.9-35.5L9.9-35.5Q13.45-35.5 14.95-34.77 16.45-34.05 16.45-33L16.45-33Q16.45-32.5 16.2-31.88 15.95-31.25 15.45-30.7L15.45-30.7Q14.95-31.05 13.63-31.48 12.3-31.9 10.55-31.9L10.55-31.9Q8.3-31.9 6.98-31 5.65-30.1 5.65-28.45L5.65-28.45Q5.65-27.1 6.28-25.98 6.9-24.85 8-23.5L8-23.5 13.4-17.35Q15.35-15.05 16.05-13.15 16.75-11.25 16.75-8.9L16.75-8.9Q16.75-6.4 15.93-4.25 15.1-2.1 13.18-0.8 11.25 0.5 7.85 0.5Z" opacity="1" transform="matrix(1,0,0,1,0,0)" fill="#ffffff" class="undefined-text-0" data-fill-palette-color="quaternary" id="text-0"></path></svg></g></svg></g></svg></g></svg></g><g></g></svg></g><defs></defs></svg><rect width="195.38245481481482" height="247.2" fill="none" stroke="none" visibility="hidden"></rect></g></svg></g></svg>