<svg width="659" height="384" viewBox="0 0 659 384" fill="none" xmlns="http://www.w3.org/2000/svg">
<path d="M402.808 129.145C408.894 141.753 413.347 156.038 416.166 172C419.171 187.427 418.96 202.631 415.531 217.611C411.929 232.231 403.792 244.82 391.122 255.378C389.495 256.607 387.688 257.924 385.7 259.327C383.539 260.371 381.377 261.414 379.216 262.457C368.049 267.848 356.025 270.543 343.144 270.543C330.263 270.542 319.382 268.244 310.501 263.648L310.24 263.108C309.892 262.387 310.358 261.052 311.637 259.102C312.383 256.965 313.463 256.444 314.879 257.537C320.221 259.4 325.667 260.102 331.22 259.643C336.238 258.997 341.269 257.457 346.312 255.022C353.156 251.718 359.659 247.247 365.82 241.608C371.447 235.782 375.913 229.851 379.217 223.814C387.478 208.723 391.565 191.426 391.478 171.924C390.858 152.236 386.809 134.648 379.332 119.158C369.072 97.9046 354.856 84.5574 336.684 79.1164C318.338 73.3151 299.979 74.8487 281.607 83.7171C270.44 89.1077 260.317 96.6596 251.236 106.373C238.529 119.614 227.138 134.662 217.064 151.518C206.455 168.187 195.86 183.962 185.276 198.842C175.612 211.947 164.116 221.716 150.787 228.15C136.739 234.931 121.143 237.13 104.002 234.744C88.3014 231.663 73.6381 224.75 60.0121 214.006C45.852 203.074 35.2072 190.224 28.0777 175.455C23.2088 165.369 20.3148 154.773 19.396 143.668C18.4771 132.563 20.3344 121.229 24.9678 109.665C27.1665 105.938 30.7875 102.858 35.8306 100.424C43.0351 96.9457 49.3142 95.6913 54.6678 96.6604C60.9157 97.6418 68.7785 98.2879 78.256 98.5987C87.7335 98.9095 94.0871 98.7296 97.3166 98.0589C98.0246 98.6055 99.6145 100.059 102.086 102.419C104.024 104.593 104.626 106.301 103.894 107.543C100.316 107.493 94.1365 108.033 85.3545 109.163C76.5726 110.293 69.1197 112.337 62.9958 115.293C59.0334 117.205 54.7976 119.472 50.2886 122.093C45.2454 124.528 42.053 128.956 40.7113 135.377C38.8355 141.613 38.1087 148.848 38.5308 157.084C38.9529 165.319 41.5115 174.3 46.2065 184.026C55.7705 203.838 68.8375 216.186 85.4075 221.068C101.977 225.95 117.107 225.087 130.795 218.479C137.64 215.175 143.788 210.43 149.241 204.245C159.601 192.581 168.197 179.104 175.029 163.814C181.862 148.523 189.141 133.239 196.867 117.961C204.06 102.496 213.376 88.6714 224.817 76.4863C232.444 68.3629 241.12 61.9537 250.846 57.2587C264.895 50.4769 279.422 47.9061 294.427 49.5461C309.258 50.8259 323.866 55.3229 338.249 63.0369C352.099 70.5647 364.669 80.0425 375.96 91.4705C387.251 102.899 396.2 115.457 402.808 129.145Z" fill="white"/>
<path d="M658.235 299.339C658.258 299.738 658.07 299.949 657.67 299.972C656.073 300.062 647.385 298.752 631.606 296.04C615.805 292.929 592.148 289.062 560.636 284.437C538.467 282.088 514.125 280.262 487.609 278.961C460.671 277.282 433.379 276.425 405.732 276.389C378.063 275.954 352.248 276.415 328.287 277.773C315.507 278.498 303.338 279.388 291.779 280.443C280.22 281.499 269.894 283.086 260.799 285.204L243.664 290.382C235.79 292.831 230.056 294.158 226.462 294.361C222.468 294.588 220.279 291.306 219.895 284.517C218.989 268.543 235.709 259.582 270.054 257.636C280.837 257.025 296.856 256.918 318.113 257.316C338.947 257.337 362.811 257.788 389.704 258.668C416.198 259.57 443.512 260.827 471.649 262.437C499.385 264.07 525.747 266.182 550.734 268.773C575.298 270.986 596.28 273.603 613.679 276.624C631.055 279.245 642.241 282.217 647.237 285.539C654.298 289.947 657.964 294.547 658.235 299.339Z" fill="white"/>
<circle cx="309.936" cy="168.448" r="35" transform="rotate(-2.8783 309.936 168.448)" fill="#DC2F02"/>
<circle cx="320.713" cy="159.225" r="10" transform="rotate(-2.8783 320.713 159.225)" fill="white"/>
</svg>
