<svg version="1.1" id="Layer_1" xmlns="http://www.w3.org/2000/svg" xmlns:xlink="http://www.w3.org/1999/xlink" x="0px" y="0px"
	 width="100%" viewBox="0 0 559 446" enable-background="new 0 0 559 446" xml:space="preserve">
<path fill="#000000" opacity="1.000000" stroke="none" 
	d="
M323.000000,447.000000 
	C215.333359,447.000000 108.166718,447.000000 1.000057,447.000000 
	C1.000038,298.333405 1.000038,149.666794 1.000019,1.000137 
	C187.333237,1.000092 373.666473,1.000092 559.999756,1.000046 
	C559.999878,149.666519 559.999878,298.333038 559.999939,446.999786 
	C481.166656,447.000000 402.333344,447.000000 323.000000,447.000000 
M334.572296,213.044510 
	C334.759979,213.184219 334.947662,213.323929 335.065063,214.323868 
	C335.119568,220.938461 335.174072,227.553070 335.057800,234.943314 
	C331.288239,255.645050 312.974213,272.815552 291.809021,274.900543 
	C282.426971,275.824768 273.207886,274.693634 264.579224,270.253448 
	C261.725861,268.785187 258.545197,267.729065 255.391556,267.128723 
	C251.963745,266.476135 248.546677,267.305511 247.458115,271.200867 
	C246.367935,275.101929 246.031876,279.418365 249.770950,282.121552 
	C258.686462,288.567108 268.960999,291.518158 280.716858,292.997986 
	C288.042786,292.998840 295.370209,292.906891 302.694336,293.022247 
	C313.649139,293.194763 324.602386,293.749603 335.554962,293.715454 
	C353.198242,293.660492 370.839966,293.215576 388.483246,293.016449 
	C401.391052,292.870758 414.300323,292.855255 427.904755,292.900909 
	C432.462433,291.494568 435.193604,288.276184 434.652893,283.655670 
	C434.185486,279.661713 432.212524,275.968201 426.662659,275.214142 
	C398.142914,275.142426 369.622986,275.099304 341.103668,274.946960 
	C338.713593,274.934235 336.327484,274.186859 334.268707,273.185638 
	C338.040314,268.423462 342.310638,263.970154 345.488037,258.839966 
	C354.287872,244.631882 356.709229,229.163300 353.369965,212.761200 
	C350.303589,197.699646 343.386810,184.590591 331.347992,175.176666 
	C323.549683,169.078629 314.693268,163.160553 305.361145,160.524765 
	C295.900574,157.852676 285.220428,158.511459 275.166626,159.154068 
	C259.346771,160.165222 246.631790,168.710037 236.072083,179.677780 
	C223.931274,192.287704 218.544525,208.354813 218.127182,225.680618 
	C217.851349,237.131760 213.638107,245.969833 205.181519,253.412643 
	C197.913605,259.809265 189.339706,262.936951 180.089020,262.826416 
	C167.754623,262.679077 157.734360,256.013672 151.341858,246.206848 
	C142.803970,233.108704 142.563187,218.786026 151.350388,205.158615 
	C158.054230,194.762161 167.927505,189.645782 180.118088,189.015274 
	C186.546494,188.682785 190.963318,185.071472 190.965378,179.553680 
	C190.967316,174.353470 186.940430,171.150726 180.488739,171.003723 
	C163.238678,170.610718 149.285034,178.139832 138.858170,190.904358 
	C121.180450,212.545334 122.624657,243.659912 142.534103,263.869080 
	C153.335541,274.833160 166.702133,279.861298 182.663956,280.289917 
	C204.437256,280.874542 228.636719,262.577545 233.881744,242.893677 
	C236.129730,234.457230 236.666077,225.565094 237.986221,216.880920 
	C239.667007,205.824387 244.693542,196.177200 252.865921,188.957993 
	C260.397125,182.305176 269.355286,178.125839 279.963745,176.691849 
	C296.011597,174.522598 309.340454,179.115524 320.882904,189.560196 
	C327.645325,195.679443 331.793396,203.733963 334.237793,212.533859 
	C334.237793,212.533859 334.161591,212.475281 334.572296,213.044510 
M289.812225,241.691055 
	C290.571320,241.436981 291.330627,241.183563 292.089478,240.928818 
	C302.877563,237.307236 306.943970,224.088882 299.636719,215.493576 
	C296.069061,211.297089 291.210938,209.277405 285.029480,209.796936 
	C278.564819,210.340271 273.058319,213.358139 270.960632,219.358551 
	C266.827240,231.182114 275.486145,242.894592 289.812225,241.691055 
z"/>
<path fill="#E63A55" opacity="1.000000" stroke="none" 
	d="
M427.093781,275.986420 
	C432.212524,275.968201 434.185486,279.661713 434.652893,283.655670 
	C435.193604,288.276184 432.462433,291.494568 427.203705,292.585754 
	C425.511414,292.175934 424.520203,291.999084 423.528900,291.998413 
	C376.871918,291.967346 330.214905,291.944977 283.557953,291.969543 
	C282.298431,291.970215 281.039185,292.496735 279.779816,292.778076 
	C268.960999,291.518158 258.686462,288.567108 249.770950,282.121552 
	C246.031876,279.418365 246.367935,275.101929 247.458115,271.200867 
	C248.546677,267.305511 251.963745,266.476135 255.391556,267.128723 
	C258.545197,267.729065 261.725861,268.785187 264.579224,270.253448 
	C273.207886,274.693634 282.426971,275.824768 291.809021,274.900543 
	C312.974213,272.815552 331.288239,255.645050 335.460144,234.324615 
	C337.981873,226.873657 337.489502,220.135223 335.135345,213.463654 
	C334.947662,213.323929 334.759979,213.184219 334.398560,212.773651 
	C334.224823,212.502792 334.253326,212.565887 334.253326,212.565887 
	C331.793396,203.733963 327.645325,195.679443 320.882904,189.560196 
	C309.340454,179.115524 296.011597,174.522598 279.963745,176.691849 
	C269.355286,178.125839 260.397125,182.305176 252.865921,188.957993 
	C244.693542,196.177200 239.667007,205.824387 237.986221,216.880920 
	C236.666077,225.565094 236.129730,234.457230 233.881744,242.893677 
	C228.636719,262.577545 204.437256,280.874542 182.663956,280.289917 
	C166.702133,279.861298 153.335541,274.833160 142.534103,263.869080 
	C122.624657,243.659912 121.180450,212.545334 138.858170,190.904358 
	C149.285034,178.139832 163.238678,170.610718 180.488739,171.003723 
	C186.940430,171.150726 190.967316,174.353470 190.965378,179.553680 
	C190.963318,185.071472 186.546494,188.682785 180.118088,189.015274 
	C167.927505,189.645782 158.054230,194.762161 151.350388,205.158615 
	C142.563187,218.786026 142.803970,233.108704 151.341858,246.206848 
	C157.734360,256.013672 167.754623,262.679077 180.089020,262.826416 
	C189.339706,262.936951 197.913605,259.809265 205.181519,253.412643 
	C213.638107,245.969833 217.851349,237.131760 218.127182,225.680618 
	C218.544525,208.354813 223.931274,192.287704 236.072083,179.677780 
	C246.631790,168.710037 259.346771,160.165222 275.166626,159.154068 
	C285.220428,158.511459 295.900574,157.852676 305.361145,160.524765 
	C314.693268,163.160553 323.549683,169.078629 331.347992,175.176666 
	C343.386810,184.590591 350.303589,197.699646 353.369965,212.761200 
	C356.709229,229.163300 354.287872,244.631882 345.488037,258.839966 
	C342.310638,263.970154 338.040314,268.423462 333.791931,273.597229 
	C333.246399,277.557892 336.055664,275.916595 337.377747,275.921539 
	C367.282745,276.034149 397.188324,275.996124 427.093781,275.986420 
z"/>
<path fill="#EB6C81" opacity="1.000000" stroke="none" 
	d="
M289.413971,241.823456 
	C275.486145,242.894592 266.827240,231.182114 270.960632,219.358551 
	C273.058319,213.358139 278.564819,210.340271 285.029480,209.796936 
	C291.210938,209.277405 296.069061,211.297089 299.636719,215.493576 
	C306.943970,224.088882 302.877563,237.307236 292.089478,240.928818 
	C291.330627,241.183563 290.571320,241.436981 289.413971,241.823456 
z"/>
<path fill="#F893A1" opacity="1.000000" stroke="none" 
	d="
M280.248352,292.888031 
	C281.039185,292.496735 282.298431,291.970215 283.557953,291.969543 
	C330.214905,291.944977 376.871918,291.967346 423.528900,291.998413 
	C424.520203,291.999084 425.511414,292.175934 426.855774,292.526154 
	C414.300323,292.855255 401.391052,292.870758 388.483246,293.016449 
	C370.839966,293.215576 353.198242,293.660492 335.554962,293.715454 
	C324.602386,293.749603 313.649139,293.194763 302.694336,293.022247 
	C295.370209,292.906891 288.042786,292.998840 280.248352,292.888031 
z"/>
<path fill="#EE7D90" opacity="1.000000" stroke="none" 
	d="
M426.878235,275.600281 
	C397.188324,275.996124 367.282745,276.034149 337.377747,275.921539 
	C336.055664,275.916595 333.246399,277.557892 333.627350,273.894775 
	C336.327484,274.186859 338.713593,274.934235 341.103668,274.946960 
	C369.622986,275.099304 398.142914,275.142426 426.878235,275.600281 
z"/>
<path fill="#FDCCD9" opacity="1.000000" stroke="none" 
	d="
M335.100220,213.893768 
	C337.489502,220.135223 337.981873,226.873657 335.545532,233.936798 
	C335.174072,227.553070 335.119568,220.938461 335.100220,213.893768 
z"/>
<path fill="#FDCCD9" opacity="1.000000" stroke="none" 
	d="
M334.245544,212.549866 
	C334.253326,212.565887 334.224823,212.502792 334.193207,212.489044 
	C334.161591,212.475281 334.237793,212.533859 334.245544,212.549866 
z"/>
</svg>